#format: frame checksums
#version: 1
#hash: MD5
#tb 0: 1/25
#stream#, dts,        pts, duration,     size, hash
0,          0,          0,        1,   182160, abcf4f477f74b696faca2fcff1f62aa9
0,          1,          1,        1,   182104, 7cbcf339fa40c24522067295b39d637f
0,          2,          2,        1,   183108, dfc2c418f4379a89654c16b34ff19446
0,          3,          3,        1,   182320, 62a4647b05709d86c51a18be16877e98
0,          4,          4,        1,   181920, 61d63520703503f6e17fad67cbc08794
0,          5,          5,        1,   182424, f467638396feabe613b3c851289452d8
0,          6,          6,        1,   182248, 8a0cba950d6c5d63ba9603212ca95b0e
0,          7,          7,        1,   181876, 91432f472cf373d5d4036bd100950f3e
0,          8,          8,        1,   182104, 1c8852d82a48c1b01911ffbedf0ac1f4
0,          9,          9,        1,   182540, f36b9d48123b55f2141ae10dd26e1ca0
0,         10,         10,        1,   182120, e6ecdb9af6591916153ca9aeba76b9d0
0,         11,         11,        1,   182136, 7dc7b828a5b7c652df612474fad66f6b
0,         12,         12,        1,   181296, 347eac6563435a62f75298cefe13d3a6
0,         13,         13,        1,   182136, 3bbcd8afacdf9549da9ebd736df548a7
0,         14,         14,        1,   182412, 17f8c6ef692b4085624ce1ef7efbc963
0,         15,         15,        1,   182732, 9212760fa11fe4fa193ba1aa259e9765
0,         16,         16,        1,   181944, 7dd6d6a7084f97a77ec09ec6c62f0ab8
0,         17,         17,        1,   182232, 518552687d47ae93726679f0ed962ef4
0,         18,         18,        1,   181512, 29a66924742add13a0cae65d93d38ea9
0,         19,         19,        1,   181424, 67c965637248333f92da9d493bf7546e
0,         20,         20,        1,   180764, 298457c6c2b3f4ebcda87a12579f094d
0,         21,         21,        1,   181072, 493ea592b7d59eebf01c002e7e22fc43
0,         22,         22,        1,   181160, e30195fcc16ecfbb9348943cff01623f
0,         23,         23,        1,   182156, d26cfac33e19b4ca11210c9e6cb91955
0,         24,         24,        1,   182260, 963c157d3f0023b49d23099d53d60c8b
0,         25,         25,        1,   181976, 2494d481bf2be97692eaeda95f279b0d
0,         26,         26,        1,   181832, f1be95c840d4fcb0c8d4b7aed5b197c5
0,         27,         27,        1,   181424, 03d92e89358a8b9b9e7cf302edde307e
0,         28,         28,        1,   180632, 09f9e162fdaf28342c442172179a75c9
0,         29,         29,        1,   180624, 481e7f7730ab3ba67c06faa620a8bd5e
0,         30,         30,        1,   181024, 7a1d1b06b73d2bf41563eb749805780c
0,         31,         31,        1,   181844, 8a6ce6dd6f79e423a3bb6c2b163adc55
0,         32,         32,        1,   181712, a68007bbdf0169c9ed2dffae3dc63221
0,         33,         33,        1,   182008, f37dd0635de369761e2de979ee799c3a
0,         34,         34,        1,   181800, 14029ba1c364eca476559ce553919e99
0,         35,         35,        1,   181840, ee227d15f15c3cd564dcad2160453fb7
0,         36,         36,        1,   181848, 13b5d0892cc76a25b4914f2d706a0ad5
0,         37,         37,        1,   181976, 1a0be9f2cefe0d867c5c03d6b3987ad8
0,         38,         38,        1,   181216, 79795d735f9e0f92091203bf8b9eb9ed
0,         39,         39,        1,   181236, 2d006c8c4ba448ca7841df76e44ffa88
0,         40,         40,        1,   180672, ed5210abdae49042fcae9bde2f65a057
0,         41,         41,        1,   181324, fbbc7839c595cd0f0efc0917edfed2c3
0,         42,         42,        1,   180980, c6120b5a9440f4a0d83731627eb96d98
0,         43,         43,        1,   181204, ac4371912d16f657c90e8a00cfafdfd2
0,         44,         44,        1,   180720, d392d95c67349296d922dbf53ec3f832
0,         45,         45,        1,   180028, 37a2717fbd5aaeb128812298484f8267
0,         46,         46,        1,   179704, e8716f4856e4ccdc541632a218894f62
0,         47,         47,        1,   179648, e99cbe5d1bbd7bce241ae500b4de06c2
0,         48,         48,        1,   179424, 6f8a5e356fb77b61d9dfcabdf97340b9
0,         49,         49,        1,   178980, 75a7700b822236b0ecb169fd692910f1
